<svg id="Capa_1" enable-background="new 0 0 512.012 512.012" height="512" viewBox="0 0 512.012 512.012" width="512" xmlns="http://www.w3.org/2000/svg"><g><path d="m453.847 398.939c26.597 0 48.158-21.561 48.158-48.158v-7.414c0-26.597-21.561-48.158-48.158-48.158z" fill="#66e1f8"/><path d="m58.164 398.939c-26.597 0-48.158-21.561-48.158-48.158v-7.414c0-26.597 21.561-48.158 48.158-48.158z" fill="#66e1f8"/><path d="m50.006 347.074c0 85.57 69.368 154.938 154.938 154.938h102.124c85.57 0 154.938-69.368 154.938-154.938 0-85.57-69.368-154.938-154.938-154.938h-102.124c-85.57 0-154.938 69.368-154.938 154.938z" fill="#dee9ef"/><path d="m90.006 347.074c0 56.635 45.911 102.546 102.546 102.546h126.908c56.635 0 102.546-45.911 102.546-102.546 0-56.635-45.911-102.546-102.546-102.546h-126.908c-56.635 0-102.546 45.911-102.546 102.546z" fill="#66e1f8"/><circle cx="256.006" cy="130.024" fill="#fff" r="20"/><circle cx="256.006" cy="130.024" fill="#ff7d99" r="20"/><circle cx="256.006" cy="130.024" fill="#ff7d99" r="20"/><g><circle cx="190.361" cy="313.987" fill="#fff" r="20"/><circle cx="190.361" cy="313.987" fill="#ff7d99" r="20"/><circle cx="190.361" cy="313.987" fill="#ff7d99" r="20"/><circle cx="321.65" cy="313.987" fill="#fff" r="20"/><g fill="#ff7d99"><circle cx="321.65" cy="313.987" r="20"/><circle cx="321.65" cy="313.987" r="20"/></g></g><path d="m285.781 367.029c6.687 0 11.558 6.513 9.476 12.868-5.408 16.506-20.937 28.428-39.251 28.428s-33.843-11.922-39.251-28.428c-2.082-6.355 2.789-12.868 9.476-12.868z" fill="#fff"/><g><path d="m460.094 285.548c-24.437-60.561-83.817-103.413-153.026-103.413h-41.062v-23.833c11.639-4.128 20-15.244 20-28.28 0-16.542-13.458-30-30-30s-30 13.458-30 30c0 13.036 8.361 24.152 20 28.28v23.833h-41.062c-69.209 0-128.589 42.852-153.026 103.413-29.141 3.127-51.912 27.86-51.912 57.819v7.414c0 29.958 22.771 54.691 51.912 57.818 24.437 60.561 83.817 103.413 153.026 103.413h102.125c69.209 0 128.589-42.852 153.025-103.412 29.141-3.127 51.912-27.86 51.912-57.818v-7.414c0-29.959-22.771-54.693-51.912-57.82zm-204.088-165.525c5.514 0 10 4.486 10 10s-4.486 10-10 10-10-4.486-10-10 4.486-10 10-10zm-236 230.758v-7.414c0-16.334 10.318-30.299 24.777-35.731-3.114 12.642-4.777 25.848-4.777 39.438v.001c0 13.589 1.664 26.796 4.777 39.438-14.459-5.434-24.777-19.398-24.777-35.732zm287.062 141.231h-102.124c-79.919 0-144.938-65.02-144.938-144.938s65.019-144.938 144.938-144.938h102.125c79.919 0 144.938 65.02 144.938 144.938s-65.02 144.938-144.939 144.938zm184.938-141.231c0 16.333-10.319 30.298-24.778 35.73 3.114-12.642 4.778-25.849 4.778-39.438s-1.664-26.795-4.777-39.438c14.458 5.433 24.777 19.397 24.777 35.731z"/><path d="m319.46 234.527h-18.454c-5.522 0-10 4.478-10 10s4.478 10 10 10h18.454c51.03 0 92.546 41.517 92.546 92.547s-41.516 92.546-92.546 92.546h-126.908c-51.03 0-92.546-41.517-92.546-92.547s41.516-92.546 92.546-92.546h18.454c5.523 0 10-4.478 10-10s-4.477-10-10-10h-18.454c-62.058 0-112.546 50.488-112.546 112.547 0 62.058 50.488 112.546 112.546 112.546h126.908c62.058 0 112.546-50.488 112.546-112.547 0-62.057-50.488-112.546-112.546-112.546z"/><path d="m220.361 313.986c0-16.542-13.458-30-30-30s-30 13.458-30 30 13.458 30 30 30 30-13.458 30-30zm-30 10c-5.514 0-10-4.486-10-10s4.486-10 10-10 10 4.486 10 10-4.486 10-10 10z"/><path d="m321.65 343.986c16.542 0 30-13.458 30-30s-13.458-30-30-30-30 13.458-30 30 13.458 30 30 30zm0-40c5.514 0 10 4.486 10 10s-4.486 10-10 10-10-4.486-10-10 4.487-10 10-10z"/><path d="m210.046 365.295c-3.763 5.192-4.782 11.649-2.794 17.715 6.92 21.123 26.513 35.314 48.754 35.314s41.834-14.191 48.754-35.314c1.987-6.065.969-12.522-2.795-17.716-3.75-5.175-9.8-8.265-16.184-8.265h-59.551c-6.383 0-12.433 3.09-16.184 8.266zm75.735 11.734-.009.003c-.001-.001-.002-.002-.002-.003zm-.109 0c-4.291 12.749-16.18 21.295-29.666 21.295-13.485 0-25.374-8.546-29.666-21.295z"/><path d="m203.049 72.191c-3.905 3.905-3.905 10.237 0 14.143 3.905 3.904 10.237 3.904 14.143 0 10.368-10.368 24.152-16.078 38.814-16.078s28.447 5.71 38.814 16.078c1.953 1.952 4.512 2.929 7.071 2.929s5.118-.977 7.071-2.929c3.905-3.905 3.905-10.237 0-14.143-14.146-14.145-32.952-21.936-52.957-21.936s-38.81 7.792-52.956 21.936z"/><path d="m174.584 53.727c2.559 0 5.119-.977 7.071-2.929 19.86-19.86 46.265-30.798 74.351-30.798s54.491 10.938 74.351 30.798c3.906 3.904 10.236 3.906 14.143 0 3.905-3.905 3.905-10.237 0-14.143-23.639-23.637-55.065-36.655-88.494-36.655-33.428 0-64.855 13.018-88.493 36.655-3.905 3.905-3.905 10.237 0 14.143 1.953 1.952 4.512 2.929 7.071 2.929z"/><circle cx="256.006" cy="244.528" r="10"/></g></g></svg>